<?xml version='1.0' encoding='iso-8859-1'?>
<svg version="1.1" xmlns="http://www.w3.org/2000/svg" viewBox="0 0 30 30" xmlns:xlink="http://www.w3.org/1999/xlink" enable-background="new 0 0 30 30">
  <g>
    <g>
      <path d="m6,12.5c-3.314,0-6,2.687-6,6s2.686,6 6,6c3.313,0 6-2.687 6-6s-2.687-6-6-6zm0,10c-2.209,0-4-1.791-4-4s1.791-4 4-4 4,1.791 4,4-1.791,4-4,4zm18-10c-0.626,0-1.218,0.123-1.785,0.301l-2.693-5.301h2.478v1c0,0.553 0.447,1 1,1 0.553,0 1-0.447 1-1v-2c0-0.553-0.447-1-1-1h-4.943c-0.033,0-0.06,0.016-0.091,0.019-0.169-0.006-0.339,0.019-0.495,0.113-0.45,0.272-0.604,0.871-0.345,1.341l1.593,3.137-3.681,6.378-4.522-8.988h0.484c0.553,0 1-0.447 1-1 0-0.553-0.447-1-1-1h-4c-0.553,0-1,0.447-1,1 0,0.553 0.447,1 1,1h1.392l5.627,11.182c0.04,0.272 0.186,0.522 0.446,0.666 0.035,0.019 0.074,0.019 0.111,0.034 0.275,0.149 0.608,0.169 0.897-0.005 0.226-0.136 0.376-0.354 0.439-0.599l3.835-6.645 .763,1.502c-1.514,1.091-2.51,2.857-2.51,4.865 0,3.313 2.686,6 6,6 3.313,0 6-2.687 6-6s-2.687-6-6-6zm0,10c-2.209,0-4-1.791-4-4 0-1.227 0.565-2.312 1.434-3.045l1.81,3.564c0.26,0.469 0.835,0.63 1.285,0.358 0.45-0.271 0.604-0.87 0.345-1.34l-1.745-3.435c0.281-0.063 0.571-0.102 0.871-0.102 2.209,0 4,1.791 4,4s-1.791,4-4,4z"/>
    </g>
  </g>
</svg>
